<?xml version="1.0" encoding="UTF-8" standalone="no"?>
<svg
   xmlns:osb="http://www.openswatchbook.org/uri/2009/osb"
   xmlns:dc="http://purl.org/dc/elements/1.1/"
   xmlns:cc="http://creativecommons.org/ns#"
   xmlns:rdf="http://www.w3.org/1999/02/22-rdf-syntax-ns#"
   xmlns:svg="http://www.w3.org/2000/svg"
   xmlns="http://www.w3.org/2000/svg"
   xmlns:xlink="http://www.w3.org/1999/xlink"
   xml:space="preserve"
   style="enable-background:new 0 0 75.721 75.721;"
   viewBox="0 0 75.721 75.721"
   y="0px"
   x="0px"
   id="Capa_1"
   version="1.1"><metadata
     id="metadata83"><rdf:RDF><cc:Work
         rdf:about=""><dc:format>image/svg+xml</dc:format><dc:type
           rdf:resource="http://purl.org/dc/dcmitype/StillImage" /><dc:title></dc:title></cc:Work></rdf:RDF></metadata><defs
     id="defs81"><linearGradient
       osb:paint="solid"
       id="gray"><stop
         id="stop4337"
         offset="0"
         style="stop-color:#cccccc;stop-opacity:1;" /></linearGradient><linearGradient
       gradientUnits="userSpaceOnUse"
       y2="37.859"
       x2="59.334"
       y1="37.859"
       x1="16.388"
       id="linearGradient4339"
       xlink:href="#gray" /></defs><g
     id="g5"><polygon
       style="fill:url(#linearGradient4339);fill-opacity:1"
       points="16.42,16.386 16.388,16.404 16.388,59.311 16.42,59.332 59.302,59.332 59.334,59.311 59.334,16.404 59.302,16.386 "
       id="polygon7" /><g
       style="fill:url(#gray)"
       id="g9"><path
         style="fill:url(#gray)"
         d="m 65.475,23.959 7.68,0 c 1.417,0 2.566,-1.149 2.566,-2.559 0,-1.41 -1.145,-2.562 -2.566,-2.562 l -7.68,0 c -1.417,0 -2.562,1.145 -2.562,2.559 0,1.413 1.145,2.562 2.562,2.562 z"
         id="path11" /><path
         style="fill:url(#gray)"
         d="m 73.152,29.806 -7.68,0 c -1.414,0 -2.559,1.152 -2.559,2.562 0,1.41 1.145,2.562 2.562,2.562 l 7.68,0 c 1.417,0 2.566,-1.149 2.566,-2.562 0,-1.413 -1.148,-2.562 -2.569,-2.562 z"
         id="path13" /><path
         style="fill:url(#gray)"
         d="m 73.152,40.783 -7.68,0 c -1.417,0 -2.562,1.149 -2.562,2.562 0,1.417 1.145,2.566 2.562,2.566 l 7.68,0 c 1.417,0 2.566,-1.149 2.566,-2.566 0,-1.41 -1.145,-2.562 -2.566,-2.562 z"
         id="path15" /><path
         style="fill:url(#gray)"
         d="m 73.152,51.763 -7.68,0 c -1.414,0 -2.559,1.145 -2.559,2.559 0,1.414 1.145,2.562 2.562,2.562 l 7.68,0 c 1.417,0 2.566,-1.149 2.566,-2.562 0,-1.413 -1.148,-2.559 -2.569,-2.559 z"
         id="path17" /></g><g
       style="fill:url(#gray)"
       id="g19"><path
         style="fill:url(#gray)"
         d="m 23.957,10.248 0,-7.68 c 0,-1.417 -1.145,-2.562 -2.559,-2.562 -1.417,0 -2.566,1.145 -2.566,2.562 l 0,7.68 c 0,1.417 1.149,2.562 2.566,2.562 1.414,-0.003 2.559,-1.148 2.559,-2.562 z"
         id="path21" /><path
         style="fill:url(#gray)"
         d="m 29.812,2.564 0,7.68 c 0,1.417 1.149,2.562 2.562,2.562 1.413,0 2.559,-1.145 2.559,-2.562 l 0,-7.68 c 0,-1.417 -1.145,-2.562 -2.559,-2.562 -1.414,0 -2.562,1.149 -2.562,2.562 z"
         id="path23" /><path
         style="fill:url(#gray)"
         d="m 40.788,2.564 0,7.68 c 0,1.417 1.145,2.562 2.559,2.562 1.414,0 2.566,-1.145 2.566,-2.562 l 0,-7.68 c 0,-1.417 -1.152,-2.562 -2.566,-2.562 -1.414,0 -2.559,1.149 -2.559,2.562 z"
         id="path25" /><path
         style="fill:url(#gray)"
         d="m 51.764,2.564 0,7.68 c 0,1.417 1.145,2.562 2.559,2.562 1.417,0 2.566,-1.145 2.566,-2.562 l 0,-7.68 c 0,-1.417 -1.149,-2.562 -2.566,-2.562 -1.413,-0.004 -2.559,1.149 -2.559,2.562 z"
         id="path27" /></g><g
       style="fill:url(#gray)"
       id="g29"><path
         style="fill:url(#gray)"
         d="m 23.957,73.157 0,-7.68 c 0,-1.417 -1.145,-2.566 -2.559,-2.566 -1.417,0 -2.566,1.145 -2.566,2.566 l 0,7.68 c 0,1.417 1.149,2.559 2.566,2.559 1.414,0 2.559,-1.145 2.559,-2.559 z"
         id="path31" /><path
         style="fill:url(#gray)"
         d="m 29.812,65.473 0,7.68 c 0,1.417 1.149,2.566 2.562,2.566 1.413,0 2.559,-1.145 2.559,-2.566 l 0,-7.68 c 0,-1.417 -1.145,-2.562 -2.559,-2.562 -1.414,0 -2.562,1.145 -2.562,2.562 z"
         id="path33" /><path
         style="fill:url(#gray)"
         d="m 40.788,65.473 0,7.68 c 0,1.417 1.145,2.566 2.559,2.566 1.414,0 2.566,-1.145 2.566,-2.566 l 0,-7.68 c 0,-1.417 -1.152,-2.562 -2.566,-2.562 -1.414,0 -2.559,1.145 -2.559,2.562 z"
         id="path35" /><path
         style="fill:url(#gray)"
         d="m 51.764,65.473 0,7.68 c 0,1.417 1.145,2.566 2.559,2.566 1.417,0 2.566,-1.145 2.566,-2.566 l 0,-7.68 c -0.004,-1.417 -1.152,-2.562 -2.566,-2.562 -1.414,0 -2.559,1.145 -2.559,2.562 z"
         id="path37" /></g><g
       style="fill:url(#gray)"
       id="g39"><path
         style="fill:url(#gray)"
         d="m 2.57,23.959 7.68,0 c 1.414,0 2.559,-1.152 2.559,-2.562 0,-1.41 -1.145,-2.562 -2.562,-2.562 l -7.68,0 C 1.149,18.834 0,19.983 0,21.396 c 0,1.414 1.149,2.563 2.57,2.563 z"
         id="path41" /><path
         style="fill:url(#gray)"
         d="m 10.246,29.806 -7.68,0 C 1.149,29.806 0,30.955 0,32.365 c 0,1.41 1.145,2.562 2.566,2.562 l 7.68,0 c 1.417,0 2.562,-1.149 2.562,-2.562 10e-4,-1.413 -1.145,-2.559 -2.562,-2.559 z"
         id="path43" /><path
         style="fill:url(#gray)"
         d="m 10.246,40.783 -7.68,0 C 1.149,40.783 0,41.932 0,43.345 c 0,1.417 1.145,2.566 2.566,2.566 l 7.68,0 c 1.417,0 2.562,-1.149 2.562,-2.566 10e-4,-1.41 -1.145,-2.562 -2.562,-2.562 z"
         id="path45" /><path
         style="fill:url(#gray)"
         d="m 10.246,51.763 -7.68,0 C 1.149,51.763 0,52.908 0,54.322 c 0,1.414 1.145,2.562 2.566,2.562 l 7.68,0 c 1.417,-0.004 2.562,-1.152 2.562,-2.562 0,-1.41 -1.145,-2.559 -2.562,-2.559 z"
         id="path47" /></g></g><g
     id="g49" /><g
     id="g51" /><g
     id="g53" /><g
     id="g55" /><g
     id="g57" /><g
     id="g59" /><g
     id="g61" /><g
     id="g63" /><g
     id="g65" /><g
     id="g67" /><g
     id="g69" /><g
     id="g71" /><g
     id="g73" /><g
     id="g75" /><g
     id="g77" /></svg>