<?xml version="1.0" encoding="UTF-8" standalone="no"?>
<svg
   xmlns:osb="http://www.openswatchbook.org/uri/2009/osb"
   xmlns:dc="http://purl.org/dc/elements/1.1/"
   xmlns:cc="http://creativecommons.org/ns#"
   xmlns:rdf="http://www.w3.org/1999/02/22-rdf-syntax-ns#"
   xmlns:svg="http://www.w3.org/2000/svg"
   xmlns="http://www.w3.org/2000/svg"
   xmlns:xlink="http://www.w3.org/1999/xlink"
   xml:space="preserve"
   style="enable-background:new 0 0 26.804 26.804;"
   viewBox="0 0 26.804 26.804"
   height="26.804px"
   width="26.804px"
   y="0px"
   x="0px"
   id="Capa_1"
   version="1.1"><metadata
     id="metadata45"><rdf:RDF><cc:Work
         rdf:about=""><dc:format>image/svg+xml</dc:format><dc:type
           rdf:resource="http://purl.org/dc/dcmitype/StillImage" /><dc:title></dc:title></cc:Work></rdf:RDF></metadata><defs
     id="defs43"><linearGradient
       osb:paint="solid"
       id="gray-8"><stop
         id="stop4178"
         offset="0"
         style="stop-color:#dddddd;stop-opacity:1;" /></linearGradient><linearGradient
       gradientUnits="userSpaceOnUse"
       y2="13.402"
       x2="23.713"
       y1="13.402"
       x1="3.091"
       id="linearGradient4180"
       xlink:href="#gray-8" /></defs><g
     id="g5"><path
       style="fill-opacity:1;fill:url(#linearGradient4180)"
       d="M 21.782,0 5.023,0 C 3.96,0 3.091,0.87 3.091,1.931 l 0,22.942 c 0,1.062 0.869,1.931 1.932,1.931 l 16.759,0 c 1.062,0 1.931,-0.87 1.931,-1.931 l 0,-22.942 C 23.713,0.87 22.843,0 21.782,0 Z m -17.659,25.257 0,-6.185 6.187,6.185 -6.187,0 z m 2.269,-5.376 c 0.024,-0.023 0.03,-0.055 0.053,-0.077 0.298,-0.297 5.831,-2.918 5.831,-2.918 0,0 -2.615,5.535 -2.914,5.832 -0.024,0.022 -0.059,0.028 -0.083,0.058 L 6.392,19.881 Z m 16.289,5.376 -6.188,0 6.188,-6.185 0,6.185 z m -9.279,-5.153 c -0.683,0 -1.345,-0.086 -1.987,-0.227 0.438,-0.895 0.901,-1.865 1.327,-2.771 l 0.618,-1.303 -1.301,0.618 C 10.7,17.065 9.196,17.785 8.031,18.369 5.674,16.685 4.123,13.943 4.123,10.827 c 0,-5.126 4.153,-9.279 9.279,-9.279 5.126,0 9.279,4.153 9.279,9.279 0,5.12 -4.153,9.277 -9.279,9.277 z"
       id="path7" /><path
       style="fill:url(#gray-8)"
       d="m 13.402,7.732 c -1.709,0 -3.093,1.384 -3.093,3.095 0,1.706 1.384,3.089 3.093,3.089 1.708,0 3.093,-1.383 3.093,-3.089 0,-1.711 -1.385,-3.095 -3.093,-3.095 z m 0,5.157 c -1.141,0 -2.062,-0.927 -2.062,-2.063 0,-1.14 0.921,-2.064 2.062,-2.064 1.141,0 2.062,0.924 2.062,2.064 0,1.136 -0.921,2.063 -2.062,2.063 z"
       id="path9" /></g><g
     id="g11" /><g
     id="g13" /><g
     id="g15" /><g
     id="g17" /><g
     id="g19" /><g
     id="g21" /><g
     id="g23" /><g
     id="g25" /><g
     id="g27" /><g
     id="g29" /><g
     id="g31" /><g
     id="g33" /><g
     id="g35" /><g
     id="g37" /><g
     id="g39" /></svg>