<?xml version="1.0" encoding="UTF-8" standalone="no"?>
<svg
   xmlns:osb="http://www.openswatchbook.org/uri/2009/osb"
   xmlns:dc="http://purl.org/dc/elements/1.1/"
   xmlns:cc="http://creativecommons.org/ns#"
   xmlns:rdf="http://www.w3.org/1999/02/22-rdf-syntax-ns#"
   xmlns:svg="http://www.w3.org/2000/svg"
   xmlns="http://www.w3.org/2000/svg"
   xmlns:xlink="http://www.w3.org/1999/xlink"
   version="1.1"
   id="Capa_1"
   x="0px"
   y="0px"
   width="467.879px"
   height="467.879px"
   viewBox="0 0 467.879 467.879"
   style="enable-background:new 0 0 467.879 467.879;"
   xml:space="preserve"><metadata
     id="metadata41"><rdf:RDF><cc:Work
         rdf:about=""><dc:format>image/svg+xml</dc:format><dc:type
           rdf:resource="http://purl.org/dc/dcmitype/StillImage" /><dc:title></dc:title></cc:Work></rdf:RDF></metadata><defs
     id="defs39"><linearGradient
       id="gray-5"
       osb:paint="solid"><stop
         style="stop-color:#cccccc;stop-opacity:1;"
         offset="0"
         id="stop4172" /></linearGradient><linearGradient
       xlink:href="#gray-5"
       id="linearGradient4174"
       x1="-1.1368684e-13"
       y1="233.939"
       x2="467.879"
       y2="233.939"
       gradientUnits="userSpaceOnUse" /></defs><path
     id="path5"
     d="M 0 113.4668 L 0 170.90234 C 25.535 170.90234 46.226563 191.59991 46.226562 217.12891 C 46.226562 242.66091 25.535 263.35742 0 263.35742 L 0 320.79297 L 12.607422 320.79297 L 12.607422 354.41016 L 30.818359 354.41016 L 30.818359 320.79297 L 49.029297 320.79297 L 49.029297 354.41016 L 67.240234 354.41016 L 67.240234 320.79297 L 86.851562 320.79297 L 86.851562 354.41016 L 105.0625 354.41016 L 105.0625 320.79297 L 125.50977 320.79297 L 125.50977 354.41016 L 143.71875 354.41016 L 143.71875 320.79297 L 166.11133 320.79297 L 166.11133 354.41016 L 184.32227 354.41016 L 184.32227 320.79297 L 202.5332 320.79297 L 202.5332 354.41016 L 220.74219 354.41016 L 220.74219 320.79297 L 240.35156 320.79297 L 240.35156 354.41016 L 258.5625 354.41016 L 258.5625 320.79297 L 279.00586 320.79297 L 279.00586 354.41016 L 297.21875 354.41016 L 297.21875 320.79297 L 318.10938 320.79297 L 318.10938 354.41016 L 336.31836 354.41016 L 336.31836 320.79297 L 356.76562 320.79297 L 356.76562 354.41016 L 374.97461 354.41016 L 374.97461 320.79297 L 397.00391 320.79297 L 397.00391 354.41016 L 415.2168 354.41016 L 415.2168 320.79297 L 435.6582 320.79297 L 435.6582 354.41016 L 453.86719 354.41016 L 453.86719 320.79297 L 467.87891 320.79297 L 467.87891 263.35742 C 442.34491 263.35742 421.65039 242.66091 421.65039 217.12891 C 421.65039 191.59991 442.34491 170.90234 467.87891 170.90234 L 467.87891 113.4668 L 0 113.4668 z M 110.80469 170.12891 L 136.9082 170.12891 C 143.50959 170.12891 148.82422 175.44158 148.82422 182.04297 L 148.82422 252.21094 C 148.82422 258.81233 143.50959 264.12695 136.9082 264.12695 L 110.80469 264.12695 C 104.2033 264.12695 98.888672 258.81233 98.888672 252.21094 L 98.888672 182.04297 C 98.888672 175.44158 104.2033 170.12891 110.80469 170.12891 z M 228.47461 170.12891 L 254.58008 170.12891 C 261.18146 170.12891 266.49414 175.44158 266.49414 182.04297 L 266.49414 252.21094 C 266.49414 258.81233 261.18146 264.12695 254.58008 264.12695 L 228.47461 264.12695 C 221.87322 264.12695 216.55859 258.81233 216.55859 252.21094 L 216.55859 182.04297 C 216.55859 175.44158 221.87322 170.12891 228.47461 170.12891 z M 341.60352 170.12891 L 367.70898 170.12891 C 374.31036 170.12891 379.625 175.44158 379.625 182.04297 L 379.625 252.21094 C 379.625 258.81233 374.31036 264.12695 367.70898 264.12695 L 341.60352 264.12695 C 335.00213 264.12695 329.6875 258.81233 329.6875 252.21094 L 329.6875 182.04297 C 329.6875 175.44158 335.00213 170.12891 341.60352 170.12891 z "
     style="fill:url(#linearGradient4174);fill-opacity:1" /><g
     id="g7" /><g
     id="g9" /><g
     id="g11" /><g
     id="g13" /><g
     id="g15" /><g
     id="g17" /><g
     id="g19" /><g
     id="g21" /><g
     id="g23" /><g
     id="g25" /><g
     id="g27" /><g
     id="g29" /><g
     id="g31" /><g
     id="g33" /><g
     id="g35" /></svg>