<?xml version="1.0" encoding="UTF-8" standalone="no"?>
<svg
   xmlns:osb="http://www.openswatchbook.org/uri/2009/osb"
   xmlns:dc="http://purl.org/dc/elements/1.1/"
   xmlns:cc="http://creativecommons.org/ns#"
   xmlns:rdf="http://www.w3.org/1999/02/22-rdf-syntax-ns#"
   xmlns:svg="http://www.w3.org/2000/svg"
   xmlns="http://www.w3.org/2000/svg"
   xmlns:xlink="http://www.w3.org/1999/xlink"
   height="131.24942mm"
   width="131.24942mm"
   version="1.1"
   id="Capa_1"
   x="0px"
   y="0px"
   viewBox="0 0 465.057 465.057"
   xml:space="preserve"><metadata
     id="metadata47"><rdf:RDF><cc:Work
         rdf:about=""><dc:format>image/svg+xml</dc:format><dc:type
           rdf:resource="http://purl.org/dc/dcmitype/StillImage" /><dc:title></dc:title></cc:Work></rdf:RDF></metadata><defs
     id="defs45"><linearGradient
       gradientTransform="matrix(0.93553523,0,0,0.93553523,14.989896,26.557409)"
       id="gray-1"
       osb:paint="solid"><stop
         style="stop-color:#dddddd;stop-opacity:1;"
         offset="0"
         id="stop4177" /></linearGradient><linearGradient
       gradientTransform="translate(0,-7.9709994)"
       xlink:href="#gray-1"
       id="linearGradient4179"
       x1="260.11401"
       y1="373.0715"
       x2="465.056"
       y2="373.0715"
       gradientUnits="userSpaceOnUse" /></defs><path
     style="fill:url(#gray-1)"
     id="path5"
     d="m 156.766,159.031 37.377,0 0,25.939 -13.97,0 c -4.142,0 -7.5,3.357 -7.5,7.5 0,4.143 3.358,7.5 7.5,7.5 l 104.709,0 c 4.143,0 7.5,-3.357 7.5,-7.5 0,-4.143 -3.357,-7.5 -7.5,-7.5 l -13.97,0 0,-25.939 37.377,0 c 14.728,0 26.709,-11.981 26.709,-26.709 l 0,-89.555999 c 0,-14.728 -11.981,-26.709 -26.709,-26.709 l -151.523,0 c -14.728,0 -26.709,11.981 -26.709,26.709 l 0,89.555999 c 0,14.728 11.982,26.709 26.709,26.709 z m 99.147,25.939 -46.77,0 0,-25.939 46.77,0 0,25.939 z M 145.057,42.766001 c 0,-6.456 5.252,-11.709 11.709,-11.709 l 151.524,0 c 6.456,0 11.709,5.253 11.709,11.709 l 0,89.555999 c 0,6.456 -5.253,11.709 -11.709,11.709 l -151.524,0 c -6.457,0 -11.709,-5.253 -11.709,-11.709 l 0,-89.555999 z" /><path
     style="fill:url(#gray-1)"
     id="path7"
     d="m 178.233,273.144 -151.524,0 C 11.981,273.144 0,285.126 0,299.853 l 0,89.556 c 0,14.728 11.981,26.709 26.709,26.709 l 37.377,0 0,25.939 -13.97,0 c -4.142,0 -7.5,3.357 -7.5,7.5 0,4.143 3.358,7.5 7.5,7.5 l 104.708,0 c 4.142,0 7.5,-3.357 7.5,-7.5 0,-4.143 -3.358,-7.5 -7.5,-7.5 l -13.969,0 0,-25.939 37.377,0 c 14.728,0 26.709,-11.981 26.709,-26.709 l 0,-89.556 c 0.001,-14.727 -11.981,-26.709 -26.708,-26.709 z m -52.377,168.913 -46.77,0 0,-25.939 46.77,0 0,25.939 z m 64.086,-52.648 c 0,6.456 -5.252,11.709 -11.709,11.709 l -151.524,0 C 20.252,401.118 15,395.865 15,389.409 l 0,-89.556 c 0,-6.456 5.252,-11.709 11.709,-11.709 l 151.524,0 c 6.457,0 11.709,5.253 11.709,11.709 l 0,89.556 z" /><path
     style="fill:url(#linearGradient4179);fill-opacity:1"
     id="path9"
     d="m 438.348,273.144 -151.525,0 c -14.728,0 -26.709,11.981 -26.709,26.709 l 0,89.556 c 0,14.728 11.981,26.709 26.709,26.709 l 37.377,0 0,25.939 -13.969,0 c -4.143,0 -7.5,3.357 -7.5,7.5 0,4.143 3.357,7.5 7.5,7.5 l 104.708,0 c 4.143,0 7.5,-3.357 7.5,-7.5 0,-4.143 -3.357,-7.5 -7.5,-7.5 l -13.969,0 0,-25.939 37.377,0 c 14.728,0 26.709,-11.981 26.709,-26.709 l 0,-89.556 c 0.001,-14.727 -11.981,-26.709 -26.708,-26.709 z m -52.377,168.913 -46.771,0 0,-25.939 46.771,0 0,25.939 z m 64.086,-52.648 c 0,6.456 -5.253,11.709 -11.709,11.709 l -151.525,0 c -6.456,0 -11.709,-5.253 -11.709,-11.709 l 0,-89.556 c 0,-6.456 5.253,-11.709 11.709,-11.709 l 151.524,0 c 6.456,0 11.709,5.253 11.709,11.709 l 0,89.556 z" /><path
     style="fill:url(#gray-1)"
     id="path11"
     d="m 347.18536,260.96231 c 0,3.87592 3.14059,7.01651 7.01651,7.01651 3.87593,0 7.01652,-3.14059 7.01652,-7.01651 l 0,-24.40531 c 0,-3.87592 -3.14059,-7.01651 -7.01652,-7.01651 l -114.65732,0 0,-17.3888 c 0,-3.87592 -3.1406,-7.01651 -7.01652,-7.01651 -3.87498,0 -7.01651,3.14059 -7.01651,7.01651 l 0,17.3888 -114.65639,0 c -3.87499,0 -7.01652,3.14059 -7.01652,7.01651 l 0,24.40531 c 0,3.87592 3.14153,7.01651 7.01652,7.01651 3.87498,0 7.01651,-3.14059 7.01651,-7.01651 l 0,-17.3888 229.31372,0 0,17.3888 z" /><g
     id="g13" /><g
     id="g15" /><g
     id="g17" /><g
     id="g19" /><g
     id="g21" /><g
     id="g23" /><g
     id="g25" /><g
     id="g27" /><g
     id="g29" /><g
     id="g31" /><g
     id="g33" /><g
     id="g35" /><g
     id="g37" /><g
     id="g39" /><g
     id="g41" /></svg>