<?xml version="1.0" encoding="UTF-8" standalone="no"?>
<svg
   xmlns:dc="http://purl.org/dc/elements/1.1/"
   xmlns:cc="http://creativecommons.org/ns#"
   xmlns:rdf="http://www.w3.org/1999/02/22-rdf-syntax-ns#"
   xmlns:svg="http://www.w3.org/2000/svg"
   xmlns="http://www.w3.org/2000/svg"
   width="64.000008"
   height="55.000313"
   viewBox="0 0 64.000009 55.000314"
   id="svg2"
   version="1.1">
  <defs
     id="defs4" />
  <metadata
     id="metadata7">
    <rdf:RDF>
      <cc:Work
         rdf:about="">
        <dc:format>image/svg+xml</dc:format>
        <dc:type
           rdf:resource="http://purl.org/dc/dcmitype/StillImage" />
        <dc:title></dc:title>
      </cc:Work>
    </rdf:RDF>
  </metadata>
  <path
     id="path4164"
     d="M 31.998047,0 C 27.954295,-0.17302061 24.299604,2.6201554 22.797931,6.2744023 17.327858,15.535311 12.043744,24.904076 6.7531361,34.266525 4.5876735,38.05052 1.9600574,41.616594 0.1895715,45.599366 c -1.2194943,4.714261 3.2454205,9.296811 7.8822747,9.295955 8.9439848,0.237552 17.9052758,0.02997 26.8566048,0.107086 7.270158,-0.04603 14.550998,0.10373 21.814476,-0.106857 4.38008,-0.545651 8.556489,-5.163345 6.893713,-9.667046 C 61.535389,40.736069 58.694327,36.625216 56.316747,32.273068 50.635224,22.600482 45.131341,12.809447 39.30891,3.2283067 37.53284,1.1051696 34.729787,0.00818283 31.998047,0 Z m 0.03516,5.5859375 C 35.5692,5.3707824 38.096304,9.089105 37.328038,12.37709 36.639247,19.544489 35.998558,26.722645 35.197457,33.876217 34.733681,37.483367 28.83632,37.036313 28.72279,33.480905 28.016888,25.972716 27.154816,18.474695 26.597656,10.955078 26.449059,7.9943804 29.100354,5.4574101 32.033203,5.5859375 Z M 31.429688,40.554688 c 2.385914,-0.329267 5.094882,0.953679 5.490588,3.52782 0.727509,2.952585 -2.072627,5.807664 -5.025384,5.331554 -3.234767,0.475593 -6.001905,-3.115596 -4.644372,-6.107871 0.686222,-1.633608 2.394472,-2.796897 4.179168,-2.751503 z"
     style="color:#000000;clip-rule:nonzero;display:inline;overflow:visible;visibility:visible;opacity:1;isolation:auto;mix-blend-mode:normal;color-interpolation:sRGB;color-interpolation-filters:linearRGB;solid-color:#000000;solid-opacity:1;fill:#fff300;fill-opacity:1;fill-rule:nonzero;stroke:none;stroke-width:19.51436806;stroke-linecap:butt;stroke-linejoin:miter;stroke-miterlimit:4;stroke-dasharray:none;stroke-dashoffset:0;stroke-opacity:1;color-rendering:auto;image-rendering:auto;shape-rendering:auto;text-rendering:auto;enable-background:accumulate" />
</svg>
