<?xml version="1.0" encoding="UTF-8" standalone="no"?>
<svg
   xmlns:dc="http://purl.org/dc/elements/1.1/"
   xmlns:cc="http://creativecommons.org/ns#"
   xmlns:rdf="http://www.w3.org/1999/02/22-rdf-syntax-ns#"
   xmlns:svg="http://www.w3.org/2000/svg"
   xmlns="http://www.w3.org/2000/svg"
   width="64.000008"
   height="55.000313"
   viewBox="0 0 64.000009 55.000314"
   id="svg2"
   version="1.1">
  <defs
     id="defs4" />
  <metadata
     id="metadata7">
    <rdf:RDF>
      <cc:Work
         rdf:about="">
        <dc:format>image/svg+xml</dc:format>
        <dc:type
           rdf:resource="http://purl.org/dc/dcmitype/StillImage" />
        <dc:title></dc:title>
      </cc:Work>
    </rdf:RDF>
  </metadata>
  <path
     id="path4164"
     d="m 31.998058,0 c -3.700261,-0.0988 -7.235476,2.11611 -8.744316,5.48806 -4.860801,8.38698 -9.82029,16.71748 -14.443766,25.23838 -2.6587482,4.7678 -5.725647,9.3058 -8.35092857,14.085 -1.74714663,4.1834 1.55710717,8.8312 5.70831697,9.7907 3.3652976,0.721 6.8455306,0.2725 10.2664476,0.3979 13.151451,-0.017 26.304276,0.034 39.45487,-0.025 4.563471,-0.1683 9.127886,-4.4663 7.929684,-9.2442 -0.915468,-2.7013 -2.719206,-5.0031 -4.043607,-7.5193 C 53.059434,26.70044 46.397845,15.15544 39.649098,3.66541 37.916721,1.25881 34.899489,0.00565 31.998058,4e-4 Z"
     style="color:#000000;clip-rule:nonzero;display:inline;overflow:visible;visibility:visible;opacity:1;isolation:auto;mix-blend-mode:normal;color-interpolation:sRGB;color-interpolation-filters:linearRGB;solid-color:#000000;solid-opacity:1;fill:#ff0000;fill-opacity:1;fill-rule:nonzero;stroke:none;stroke-width:19.51436806;stroke-linecap:butt;stroke-linejoin:miter;stroke-miterlimit:4;stroke-dasharray:none;stroke-dashoffset:0;stroke-opacity:1;color-rendering:auto;image-rendering:auto;shape-rendering:auto;text-rendering:auto;enable-background:accumulate" />
  <text
     id="text4135"
     y="48.407806"
     x="11.830667"
     style="font-style:normal;font-variant:normal;font-weight:bold;font-stretch:normal;font-size:67.11925507px;line-height:125%;font-family:FreeMono;-inkscape-font-specification:'FreeMono Bold';letter-spacing:0px;word-spacing:0px;fill:#ffffff;fill-opacity:1;stroke:none;stroke-width:1px;stroke-linecap:butt;stroke-linejoin:miter;stroke-opacity:1"
     xml:space="preserve"><tspan
       y="48.407806"
       x="11.830667"
       id="tspan4137">!</tspan></text>
</svg>
