<?xml version="1.0" encoding="UTF-8" standalone="no"?>
<svg
   xmlns:dc="http://purl.org/dc/elements/1.1/"
   xmlns:cc="http://creativecommons.org/ns#"
   xmlns:rdf="http://www.w3.org/1999/02/22-rdf-syntax-ns#"
   xmlns:svg="http://www.w3.org/2000/svg"
   xmlns="http://www.w3.org/2000/svg"
   version="1.1"
   id="svg2"
   viewBox="0 0 102.9896 62.18084"
   height="17.548815mm"
   width="29.065954mm">
  <defs
     id="defs4">
    <filter
       height="1.0024079"
       y="-0.0012039306"
       width="1.0023922"
       x="-0.001196095"
       id="filter4247"
       style="color-interpolation-filters:sRGB">
      <feGaussianBlur
         id="feGaussianBlur4249"
         stdDeviation="0.01694122" />
    </filter>
  </defs>
  <metadata
     id="metadata7">
    <rdf:RDF>
      <cc:Work
         rdf:about="">
        <dc:format>image/svg+xml</dc:format>
        <dc:type
           rdf:resource="http://purl.org/dc/dcmitype/StillImage" />
        <dc:title></dc:title>
      </cc:Work>
    </rdf:RDF>
  </metadata>
  <g
     transform="translate(-298.99597,-304.11462)"
     id="layer1">
    <path
       id="path4276"
       d="m 347.54848,366.29546 c -1.69544,-0.7702 -3.82838,0.0145 -5.56472,-0.61014 -1.58354,0.26416 -3.04639,-0.41164 -4.70507,-0.34228 -3.40835,-0.48165 2.16836,-0.83933 3.3606,-0.60301 6.77005,0.32936 13.42648,-1.27229 20.08057,-2.28442 5.35121,-0.86818 10.30185,-3.2393 15.19856,-5.39894 4.16837,-2.26128 8.39487,-4.79992 10.49233,-9.21995 3.70463,-5.88712 5.35453,-12.67663 6.56451,-19.45799 0.69139,-3.76704 -0.23939,-8.24807 -2.78035,-11.13093 -4.34611,-3.24294 -10.07224,-3.90115 -15.2625,-5.03092 -3.35449,-0.47522 -6.67468,-1.22138 -10.0875,-1.04404 -2.97804,-0.62549 -6.35328,-0.14621 -9.45,-0.0978 -2.23175,0.29119 -4.17686,0.55871 -6.51233,1.00793 -9.22077,2.05571 -17.75354,6.51022 -25.73123,11.46468 -6.95835,4.52952 -13.22789,10.03635 -19.19695,15.77852 -1.45221,1.07891 -4.85208,6.75379 -4.95843,5.38126 2.68173,-5.05471 5.63687,-10.12875 9.51659,-14.34119 2.23096,-3.17923 5.39154,-6.05808 8.35065,-8.35609 4.81707,-4.11433 10.34604,-7.49825 16.11049,-10.11821 6.0457,-2.45047 12.14566,-4.81045 18.63369,-5.80521 5.40928,-1.2785 10.76551,-1.89508 16.3132,-1.88154 1.89156,-0.3262 3.26687,0.34805 5.14101,0.15951 3.00417,-0.0609 5.62398,0.20965 8.35823,0.62276 6.13121,1.1395 12.39712,2.36319 17.97658,5.24687 2.24693,0.98366 2.41411,2.64484 2.53904,4.68357 0.57836,10.72797 -3.92412,21.06943 -9.6054,29.92476 -2.34727,3.48865 -5.78624,6.10067 -8.70392,9.09424 -7.7435,6.57114 -17.74865,9.64529 -27.55617,11.54788 -2.37031,0.17378 -4.76429,0.43689 -7.05642,0.55138 -0.55305,0.0387 -1.13132,-0.32614 -1.46506,0.25926 z"
       style="fill:#c8c8c8" />
    <path
       id="path4229"
       d="m 340.02389,330.86545 c 2.39756,-0.55316 4.6392,-1.61687 6.83249,-2.70504 0.82459,-0.5375 1.64918,-1.075 2.47377,-1.61249 1.19656,0 2.39312,0 3.58968,0 0,7 0,14 0,21 -1.65,0 -3.3,0 -4.95,0 0,-5.25657 0,-10.51315 0,-15.76972 -0.16725,-0.18955 -0.21342,-0.76525 -0.53353,-0.46724 -2.4811,1.2772 -5.18499,2.00627 -7.82944,2.85241 -0.546,0.23496 0.1269,-1.01364 0.0663,-1.3908 0.12511,-0.63417 0.23878,-1.27053 0.35078,-1.90712 z"
       style="fill:#99e1a5" />
    <path
       id="path4227"
       d="m 350.29483,353.92394 c -4.60987,0.25476 -9.58492,-0.87504 -13.03344,-4.0989 -2.97441,-2.77686 -4.2426,-6.9257 -4.49125,-10.8893 -0.0454,-2.6378 -0.0951,-5.31345 0.68766,-7.86561 0.95233,-3.67993 3.32303,-7.07479 6.79055,-8.76465 4.29519,-2.20916 9.36172,-2.41997 14.05021,-1.6526 4.29137,0.72242 8.47411,3.17096 10.44284,7.16445 1.82133,3.4687 2.18779,7.50385 1.89669,11.35685 -0.13977,5.0112 -2.62447,10.19687 -7.14836,12.64865 -2.8193,1.46911 -6.02316,2.15809 -9.1949,2.10111 z m -0.15,-3.15071 c 2.07644,0.1123 4.15904,-0.57317 5.85039,-1.75211 0.96072,-1.03802 2.17188,-1.92407 2.64012,-3.3182 1.55098,-3.21034 1.75117,-6.91044 1.57808,-10.41792 -0.21332,-2.94137 -0.77785,-6.02451 -2.58555,-8.43311 -1.05237,-1.01115 -2.01336,-2.19892 -3.4607,-2.65107 -1.97608,-0.95244 -4.19744,-0.73054 -6.32015,-0.68798 -2.09593,0.28975 -4.24223,1.19439 -5.58197,2.89181 -1.09011,0.95365 -1.49723,2.40804 -2.12845,3.66863 -0.24828,2.08991 -0.93745,4.12522 -0.81225,6.25224 -0.22511,3.40253 0.10896,6.97924 1.81337,9.99548 1.03523,1.95092 2.91015,3.4115 5.0244,4.03954 1.28468,0.39519 2.64577,0.4998 3.98271,0.41269 z"
       style="fill:#56ca69;stroke:#99e1a5;stroke-width:0.2;stroke-miterlimit:4;stroke-dasharray:none;stroke-opacity:1;filter:url(#filter4247)" />
  </g>
</svg>
