<?xml version="1.0" encoding="UTF-8" standalone="no"?>
<!-- Created with Inkscape (http://www.inkscape.org/) -->

<svg
   xmlns:dc="http://purl.org/dc/elements/1.1/"
   xmlns:cc="http://creativecommons.org/ns#"
   xmlns:rdf="http://www.w3.org/1999/02/22-rdf-syntax-ns#"
   xmlns:svg="http://www.w3.org/2000/svg"
   xmlns="http://www.w3.org/2000/svg"
   xmlns:sodipodi="http://sodipodi.sourceforge.net/DTD/sodipodi-0.dtd"
   xmlns:inkscape="http://www.inkscape.org/namespaces/inkscape"
   width="87.384033mm"
   height="21.548815mm"
   viewBox="0 0 309.62846 76.354067"
   id="svg2"
   version="1.1"
   inkscape:version="0.91 r13725"
   sodipodi:docname="logo.svg">
  <defs
     id="defs4">
    <filter
       inkscape:collect="always"
       style="color-interpolation-filters:sRGB"
       id="filter4247"
       x="-0.001196095"
       width="1.0023922"
       y="-0.0012039306"
       height="1.0024079">
      <feGaussianBlur
         inkscape:collect="always"
         stdDeviation="0.01694122"
         id="feGaussianBlur4249" />
    </filter>
  </defs>
  <sodipodi:namedview
     id="base"
     pagecolor="#ffffff"
     bordercolor="#666666"
     borderopacity="1.0"
     inkscape:pageopacity="0.0"
     inkscape:pageshadow="2"
     inkscape:zoom="1.4142136"
     inkscape:cx="151.78453"
     inkscape:cy="7.3808753"
     inkscape:document-units="px"
     inkscape:current-layer="layer1"
     showgrid="false"
     inkscape:snap-global="true"
     inkscape:snap-bbox="true"
     inkscape:snap-bbox-edge-midpoints="false"
     inkscape:object-paths="true"
     inkscape:object-nodes="true"
     inkscape:window-width="1366"
     inkscape:window-height="744"
     inkscape:window-x="0"
     inkscape:window-y="24"
     inkscape:window-maximized="1"
     fit-margin-top="2"
     fit-margin-left="0"
     fit-margin-right="0"
     fit-margin-bottom="2" />
  <metadata
     id="metadata7">
    <rdf:RDF>
      <cc:Work
         rdf:about="">
        <dc:format>image/svg+xml</dc:format>
        <dc:type
           rdf:resource="http://purl.org/dc/dcmitype/StillImage" />
        <dc:title></dc:title>
      </cc:Work>
    </rdf:RDF>
  </metadata>
  <g
     inkscape:label="Layer 1"
     inkscape:groupmode="layer"
     id="layer1"
     transform="translate(-298.99599,-297.028)">
    <path
       style="fill:#c8c8c8"
       d="m 347.54848,366.29546 c -1.69544,-0.7702 -3.82838,0.0145 -5.56472,-0.61014 -1.58354,0.26416 -3.04639,-0.41164 -4.70507,-0.34228 -3.40835,-0.48165 2.16836,-0.83933 3.3606,-0.60301 6.77005,0.32936 13.42648,-1.27229 20.08057,-2.28442 5.35121,-0.86818 10.30185,-3.2393 15.19856,-5.39894 4.16837,-2.26128 8.39487,-4.79992 10.49233,-9.21995 3.70463,-5.88712 5.35453,-12.67663 6.56451,-19.45799 0.69139,-3.76704 -0.23939,-8.24807 -2.78035,-11.13093 -4.34611,-3.24294 -10.07224,-3.90115 -15.2625,-5.03092 -3.35449,-0.47522 -6.67468,-1.22138 -10.0875,-1.04404 -2.97804,-0.62549 -6.35328,-0.14621 -9.45,-0.0978 -2.23175,0.29119 -4.17686,0.55871 -6.51233,1.00793 -9.22077,2.05571 -17.75354,6.51022 -25.73123,11.46468 -6.95835,4.52952 -13.22789,10.03635 -19.19695,15.77852 -1.45221,1.07891 -4.85208,6.75379 -4.95843,5.38126 2.68173,-5.05471 5.63687,-10.12875 9.51659,-14.34119 2.23096,-3.17923 5.39154,-6.05808 8.35065,-8.35609 4.81707,-4.11433 10.34604,-7.49825 16.11049,-10.11821 6.0457,-2.45047 12.14566,-4.81045 18.63369,-5.80521 5.40928,-1.2785 10.76551,-1.89508 16.3132,-1.88154 1.89156,-0.3262 3.26687,0.34805 5.14101,0.15951 3.00417,-0.0609 5.62398,0.20965 8.35823,0.62276 6.13121,1.1395 12.39712,2.36319 17.97658,5.24687 2.24693,0.98366 2.41411,2.64484 2.53904,4.68357 0.57836,10.72797 -3.92412,21.06943 -9.6054,29.92476 -2.34727,3.48865 -5.78624,6.10067 -8.70392,9.09424 -7.7435,6.57114 -17.74865,9.64529 -27.55617,11.54788 -2.37031,0.17378 -4.76429,0.43689 -7.05642,0.55138 -0.55305,0.0387 -1.13132,-0.32614 -1.46506,0.25926 z"
       id="path4326"
       inkscape:connector-curvature="0" />
    <g
       id="g4356"
       transform="matrix(1.8547827,0,0,1.8547827,-136.71306,-365.98479)">
      <path
         id="path4344"
         d="m 309.19483,388.92419 c -4.64596,0.31815 -8.88271,-3.36657 -9.40798,-7.93435 -1.077,-4.8918 0.66138,-11.05421 5.68512,-12.99635 3.18601,-1.3713 7.02436,-0.92735 10.09739,0.56054 0.2037,3.44054 -2.08693,1.80294 -3.96732,1.41797 -3.34638,-0.891 -7.31336,0.86264 -8.30018,4.32459 -0.93636,3.10743 -0.94661,6.92864 1.05681,9.6281 1.8605,2.71412 5.2928,2.61749 8.13569,2.21623 1.01784,-0.86434 0.24787,-3.07409 0.53551,-4.48794 0.29277,-1.27561 -0.79149,-3.95561 1.41449,-3.28003 2.29048,-0.6883 1.05361,2.18031 1.379,3.47356 -0.11068,2.02502 0.29264,4.2917 -0.13938,6.16564 -2.00305,0.67991 -4.33889,0.9385 -6.48915,0.91204 z"
         style="fill:#c8c8c8"
         inkscape:connector-curvature="0" />
      <path
         id="path4342"
         d="m 324.52947,388.78514 c -2.52963,0.14628 -4.74295,-1.98726 -4.24135,-4.51546 -0.0256,-6.10783 -0.0511,-12.21565 -0.0767,-18.32348 1.81712,-1.19966 3.62556,-0.52275 2.8583,1.87429 0.0663,5.66675 -0.13246,11.38457 0.0993,17.01945 0.50749,1.80984 3.58449,1.35864 1.84501,3.95799 l -0.26711,-0.007 -0.21753,-0.006 1.1e-4,1e-5 z"
         style="fill:#c8c8c8"
         inkscape:connector-curvature="0" />
      <path
         id="path4340"
         d="m 331.49805,372.39258 c -2.14717,0.11287 -3.89887,2.8047 -0.61328,2.69336 2.12718,-0.63154 5.66741,-0.30089 5.69531,2.53906 0.84757,2.92429 -3.238,0.73596 -4.8711,1.43945 -2.54547,0.36959 -4.58868,2.61044 -4.30859,5.23828 0.0756,3.06836 3.26354,4.82555 6.09375,4.47657 1.93627,-0.0503 4.14151,-0.0609 5.94141,-0.75 -0.0929,-3.89604 0.0557,-7.83675 -0.1875,-11.70508 -0.59662,-3.1469 -4.02495,-4.27746 -6.81836,-3.80664 -0.30934,-0.10483 -0.62491,-0.14113 -0.93164,-0.125 z m 3.45703,8.72851 c 1.40748,-0.092 2.24328,0.86263 1.76562,2.45508 0.24969,1.68187 0.0703,3.37006 -2.08593,2.76953 -1.49523,0.14418 -3.78699,0.0584 -4.21485,-1.74023 -0.85565,-2.34827 1.90535,-3.80456 3.90039,-3.37891 0.22233,-0.0571 0.4337,-0.0923 0.63477,-0.10547 z"
         style="fill:#c8c8c8"
         inkscape:connector-curvature="0" />
      <path
         id="path4336"
         d="m 368.66983,388.7172 c -4.25791,0.72529 -8.37745,-2.93489 -8.16642,-7.21317 -0.53995,-3.82074 1.7164,-8.22466 5.73665,-8.88561 1.87365,-0.33468 4.05212,-0.2686 5.70921,0.72333 -0.005,2.72837 -1.85475,1.59075 -3.65444,1.59813 -2.91866,-0.52193 -5.01471,2.31679 -5.02891,5.00434 -0.21689,2.65644 0.82711,6.0396 3.94541,6.33707 1.52057,0.72512 4.00427,-0.97394 4.77141,0.11775 0.90341,1.60829 -0.64707,2.22624 -2.0049,2.26903 -0.43582,0.0162 -0.87356,0.0344 -1.30801,0.0491 z"
         style="fill:#c8c8c8"
         inkscape:connector-curvature="0" />
      <path
         id="path4334"
         d="m 381.5332,372.43945 c -0.85741,0.002 -1.70937,0.15841 -2.48632,0.47266 -3.51569,1.19539 -4.99963,5.24214 -4.59961,8.70898 -0.15901,4.27562 4.01225,7.77765 8.17187,7.11524 0.21799,-0.007 0.43765,-0.0135 0.65625,-0.0195 1.44454,-0.083 4.53884,-0.1098 3.45117,-2.26563 -0.5106,-1.49492 -2.72877,0.52353 -4.03125,-0.14258 -2.85851,0.5496 -5.70386,-1.87065 -5.32617,-4.85742 3.34687,-0.0249 6.69415,-0.0493 10.04102,-0.0742 1.14319,-0.62091 0.40914,-3.55097 -0.002,-4.93554 -0.69308,-2.6325 -3.30275,-4.00848 -5.875,-4.00196 z m -0.23632,2.42188 c 1.77703,-0.0614 3.57459,1.19699 3.73437,3.11914 0.70319,2.15741 -2.51809,0.8723 -3.74023,1.2168 -1.24607,7e-5 -2.4921,-2e-5 -3.73829,0 -0.25587,-1.46554 0.80341,-3.03177 2.03516,-3.81055 0.52617,-0.33844 1.11664,-0.50491 1.70899,-0.52539 z"
         style="fill:#c8c8c8"
         inkscape:connector-curvature="0" />
      <path
         id="path4330"
         d="m 395.44483,388.77872 c -1.37048,-0.16366 -4.70527,0.27398 -4.42672,-1.64535 -0.11835,-2.79022 2.55643,-0.36742 4.16027,-0.76264 1.58588,0.23641 4.25821,-0.30344 3.71646,-2.43665 -1.57078,-2.82448 -6.37583,-2.23146 -7.54952,-5.57544 -0.79076,-2.41432 0.78548,-5.09771 3.24741,-5.66321 2.03635,-0.24529 4.46519,-0.47264 6.31318,0.57735 0.20538,3.67277 -3.34049,0.77734 -5.51242,1.82909 -1.90104,0.38954 -1.67284,3.14116 0.12629,3.64193 2.37119,1.12027 6.21055,1.88338 6.26117,5.1581 0.49357,2.59895 -1.89382,4.65986 -4.34183,4.78596 -0.64815,0.1912 -1.3294,0.0644 -1.99429,0.0909 z"
         style="fill:#c8c8c8"
         inkscape:connector-curvature="0" />
      <path
         id="path4328"
         d="m 345.56273,388.46566 c -2.30855,0.73886 -1.27968,-2.06901 -1.4929,-3.37437 0,-3.86099 0,-7.72198 0,-11.58297 2.73049,-1.02752 5.84581,-1.00882 8.67141,-0.62845 3.1841,0.86491 4.18465,4.49501 3.91782,7.43883 -0.0214,2.70147 -0.0428,5.40295 -0.0642,8.10442 -1.6049,0.0828 -3.41966,0.37896 -2.73119,-1.87018 -0.20264,-3.07015 0.20426,-6.2427 -0.39235,-9.24669 -0.42032,-2.26565 -2.94893,-2.42534 -4.80653,-2.21316 -2.1229,-0.56191 -1.81234,1.64037 -1.75788,3.03588 -0.0207,3.43138 -0.0414,6.86275 -0.0621,10.29413 -0.42728,0.0141 -0.85537,0.029 -1.28211,0.0426 z"
         style="fill:#c8c8c8"
         inkscape:connector-curvature="0" />
      <path
         id="path4231"
         d="m 334.91983,365.09776 c -0.66338,-0.13972 0.63114,-0.15168 0,0 z"
         style="fill:#c8c8c8"
         inkscape:connector-curvature="0" />
    </g>
    <path
       style="fill:#99e1a5"
       d="m 340.02389,330.86545 c 2.39756,-0.55316 4.6392,-1.61687 6.83249,-2.70504 0.82459,-0.5375 1.64918,-1.075 2.47377,-1.61249 1.19656,0 2.39312,0 3.58968,0 0,7 0,14 0,21 -1.65,0 -3.3,0 -4.95,0 0,-5.25657 0,-10.51315 0,-15.76972 -0.16725,-0.18955 -0.21342,-0.76525 -0.53353,-0.46724 -2.4811,1.2772 -5.18499,2.00627 -7.82944,2.85241 -0.546,0.23496 0.1269,-1.01364 0.0663,-1.3908 0.12511,-0.63417 0.23878,-1.27053 0.35078,-1.90712 z"
       id="path4229"
       inkscape:connector-curvature="0" />
    <path
       style="fill:#56ca69;stroke:#99e1a5;stroke-width:0.2;stroke-miterlimit:4;stroke-dasharray:none;stroke-opacity:1;filter:url(#filter4247)"
       d="m 350.29483,353.92394 c -4.60987,0.25476 -9.58492,-0.87504 -13.03344,-4.0989 -2.97441,-2.77686 -4.2426,-6.9257 -4.49125,-10.8893 -0.0454,-2.6378 -0.0951,-5.31345 0.68766,-7.86561 0.95233,-3.67993 3.32303,-7.07479 6.79055,-8.76465 4.29519,-2.20916 9.36172,-2.41997 14.05021,-1.6526 4.29137,0.72242 8.47411,3.17096 10.44284,7.16445 1.82133,3.4687 2.18779,7.50385 1.89669,11.35685 -0.13977,5.0112 -2.62447,10.19687 -7.14836,12.64865 -2.8193,1.46911 -6.02316,2.15809 -9.1949,2.10111 z m -0.15,-3.15071 c 2.07644,0.1123 4.15904,-0.57317 5.85039,-1.75211 0.96072,-1.03802 2.17188,-1.92407 2.64012,-3.3182 1.55098,-3.21034 1.75117,-6.91044 1.57808,-10.41792 -0.21332,-2.94137 -0.77785,-6.02451 -2.58555,-8.43311 -1.05237,-1.01115 -2.01336,-2.19892 -3.4607,-2.65107 -1.97608,-0.95244 -4.19744,-0.73054 -6.32015,-0.68798 -2.09593,0.28975 -4.24223,1.19439 -5.58197,2.89181 -1.09011,0.95365 -1.49723,2.40804 -2.12845,3.66863 -0.24828,2.08991 -0.93745,4.12522 -0.81225,6.25224 -0.22511,3.40253 0.10896,6.97924 1.81337,9.99548 1.03523,1.95092 2.91015,3.4115 5.0244,4.03954 1.28468,0.39519 2.64577,0.4998 3.98271,0.41269 z"
       id="path4227"
       inkscape:connector-curvature="0" />
  </g>
</svg>
